<?xml version="1.0" standalone="no"?>
<!DOCTYPE svg PUBLIC "-//W3C//DTD SVG 20010904//EN"
 "http://www.w3.org/TR/2001/REC-SVG-20010904/DTD/svg10.dtd">
<svg version="1.0" xmlns="http://www.w3.org/2000/svg"
 width="512.000000pt" height="512.000000pt" viewBox="0 0 512.000000 512.000000"
 preserveAspectRatio="xMidYMid meet">
<metadata>
Created by potrace 1.14, written by Peter Selinger 2001-2017
</metadata>
<g transform="translate(0.000000,512.000000) scale(0.100000,-0.100000)"
fill="#000000" stroke="none">
<path d="M804 4186 c-17 -8 -36 -26 -42 -42 -9 -22 -12 -407 -10 -1597 l3
-1569 26 -22 26 -23 1692 -6 c1849 -8 1745 -11 1770 50 9 21 11 106 9 307 l-3
278 -32 27 -33 27 -1 100 c-1 54 -4 110 -8 123 -5 18 6 56 41 135 97 229 122
385 122 776 0 284 -8 393 -39 516 -37 144 -129 265 -245 320 l-60 29 0 246 c0
277 -5 304 -56 325 -49 20 -3113 20 -3160 0z m986 -591 l0 -425 -435 0 -435 0
0 425 0 425 435 0 435 0 0 -425z m1010 0 l0 -425 -415 0 -415 0 0 425 0 425
415 0 415 0 0 -425z m1040 245 l0 -180 -62 8 c-35 4 -182 7 -328 7 l-265 0
-54 -29 c-30 -15 -78 -51 -108 -78 l-53 -51 0 252 0 251 435 0 435 0 0 -180z
m-404 -362 c88 -41 154 -148 154 -249 0 -43 -12 -56 -31 -33 -31 37 -112 67
-195 72 -73 4 -88 1 -142 -23 -39 -17 -79 -46 -107 -76 l-45 -48 -11 42 c-15
55 -6 144 19 193 37 74 106 125 197 148 35 8 116 -4 161 -26z m453 -4 c163
-43 228 -107 273 -270 19 -71 22 -111 25 -384 7 -438 -19 -606 -125 -820 l-47
-95 -358 -3 -358 -2 -20 47 c-29 69 -65 214 -78 318 -6 50 -12 228 -14 396
l-2 305 30 49 c56 90 156 109 231 43 67 -59 68 -66 74 -346 5 -252 5 -254 29
-273 59 -48 141 -6 141 73 0 37 5 47 35 71 122 97 153 335 67 502 -22 42 -27
68 -32 160 -6 102 -9 117 -42 184 l-37 73 76 -7 c42 -4 101 -14 132 -21z
m-2099 -909 l0 -435 -432 2 -433 3 -3 420 c-1 231 0 426 3 432 3 10 100 13
435 13 l430 0 0 -435z m1010 0 l0 -435 -415 0 -415 0 0 435 0 435 415 0 415 0
0 -435z m198 263 c9 -9 12 -71 12 -217 0 -190 9 -333 26 -440 l7 -42 -34 3
-34 3 -3 353 c-1 193 1 352 6 352 4 0 13 -5 20 -12z m-1208 -1298 l0 -430
-432 2 -433 3 -3 415 c-1 228 0 421 3 427 3 10 100 13 435 13 l430 0 0 -430z
m1010 0 l0 -430 -415 0 -415 0 0 430 0 430 415 0 415 0 0 -430z m299 403 c11
-24 10 -29 -7 -43 -35 -29 -42 -56 -42 -167 l0 -109 -32 -14 c-18 -7 -36 -15
-40 -18 -10 -5 -11 362 -1 371 3 4 30 7 58 7 47 0 53 -3 64 -27z m931 -263 l0
-60 -405 0 -405 0 0 60 0 60 405 0 405 0 0 -60z"/>
<path d="M1137 3899 c-24 -14 -49 -73 -41 -96 4 -10 41 -53 83 -95 l76 -78
-80 -80 c-70 -70 -79 -84 -79 -116 0 -45 40 -84 86 -84 24 0 46 15 107 75 43
41 81 75 86 75 5 0 43 -34 86 -75 61 -60 83 -75 107 -75 46 0 86 39 86 84 0
32 -9 46 -79 116 l-80 80 76 78 c42 42 79 85 83 95 8 24 -18 83 -42 96 -47 25
-72 14 -156 -68 l-81 -80 -81 80 c-85 82 -112 94 -157 68z"/>
<path d="M2159 2827 c-26 -20 -41 -56 -34 -86 3 -16 37 -59 80 -101 l75 -75
-74 -75 c-41 -41 -77 -85 -81 -98 -10 -33 13 -80 47 -98 44 -23 83 -5 163 76
l70 70 77 -77 c67 -67 82 -77 112 -77 49 0 86 36 86 83 0 31 -10 46 -77 113
l-77 77 77 80 c70 71 77 82 77 118 0 52 -31 83 -84 83 -34 0 -47 -8 -117 -77
l-80 -77 -77 77 c-67 67 -82 77 -112 77 -19 0 -42 -6 -51 -13z"/>
</g>
</svg>
